<svg width="76" height="31" viewBox="0 0 76 31" fill="none" xmlns="http://www.w3.org/2000/svg">
<mask id="path-1-inside-1_1_521" fill="white">
<path d="M0.114357 7.31488L8.13533 8.09258C11.9701 8.4644 14.7774 11.8745 14.4056 15.7093L6.38466 14.9316C2.54985 14.5598 -0.257459 11.1497 0.114357 7.31488Z"/>
<path d="M0.60191 2.28679L4.08181 2.62419C10.4246 3.23917 15.0679 8.87955 14.4529 15.2223L14.4056 15.7093L10.9258 15.3719C4.583 14.7569 -0.060291 9.11656 0.554692 2.77379L0.60191 2.28679Z"/>
<path d="M9.37766 15.2218L8.59996 23.2428C8.22814 27.0776 4.818 29.8849 0.983194 29.5131L1.76089 21.4921C2.13271 17.6573 5.54285 14.85 9.37766 15.2218Z"/>
<path d="M14.4056 15.7093L14.0682 19.1892C13.4532 25.532 7.81286 30.1753 1.47009 29.5603L0.983194 29.5131L1.32049 26.0332C1.93548 19.6904 7.57585 15.0471 13.9186 15.6621L14.4056 15.7093Z"/>
<path d="M22.8 1.41807L22.0223 9.43904C21.6505 13.2738 18.2404 16.0812 14.4056 15.7093L15.1832 7.68837C15.555 3.85356 18.9652 1.04625 22.8 1.41807Z"/>
<path d="M27.8281 1.90559L27.4907 5.38549C26.8757 11.7283 21.2354 16.3716 14.8926 15.7566L14.4056 15.7093L14.743 12.2295C15.358 5.88668 20.9984 1.24339 27.3411 1.85837L27.8281 1.90559Z"/>
<path d="M28.6968 24.1038L20.6758 23.3261C16.841 22.9543 14.0338 19.5442 14.4056 15.7093L22.4265 16.4871C26.2613 16.8589 29.0686 20.269 28.6968 24.1038Z"/>
<path d="M28.2094 29.1319L24.7295 28.7945C18.3867 28.1795 13.7434 22.5391 14.3584 16.1964L14.4056 15.7093L17.8855 16.0468C24.2283 16.6618 28.8716 22.3021 28.2566 28.6449L28.2094 29.1319Z"/>
</mask>
<path d="M0.114357 7.31488L0.671119 1.57258L-5.07118 1.01582L-5.62795 6.75812L0.114357 7.31488ZM6.38466 14.9316L5.8279 20.674H5.8279L6.38466 14.9316ZM8.13533 8.09258L8.69209 2.35028V2.35028L8.13533 8.09258ZM0.60191 2.28679L1.15867 -3.45552L-4.58363 -4.01228L-5.14039 1.73002L0.60191 2.28679ZM10.9258 15.3719L11.4826 9.62962L11.4825 9.62962L10.9258 15.3719ZM0.554692 2.77379L-5.18761 2.21703V2.21703L0.554692 2.77379ZM4.08181 2.62419L4.63857 -3.11811L4.08181 2.62419ZM14.4529 15.2223L20.1952 15.7795L20.1952 15.7791L14.4529 15.2223ZM9.37766 15.2218L15.12 15.7786L15.6767 10.0363L9.93442 9.47953L9.37766 15.2218ZM0.983194 29.5131L-4.75913 28.9565L-5.31569 34.6986L0.426336 35.2554L0.983194 29.5131ZM1.76089 21.4921L-3.98141 20.9354L1.76089 21.4921ZM8.59996 23.2428L2.85766 22.686L8.59996 23.2428ZM1.32049 26.0332L-4.42181 25.4764L-4.42183 25.4766L1.32049 26.0332ZM13.9186 15.6621L14.4755 9.91982L14.4754 9.91982L13.9186 15.6621ZM14.0682 19.1892L8.32592 18.6325L8.32592 18.6325L14.0682 19.1892ZM1.47009 29.5603L0.913233 35.3026L0.91333 35.3026L1.47009 29.5603ZM22.8 1.41807L28.5423 1.97483L29.0991 -3.76747L23.3568 -4.32423L22.8 1.41807ZM15.1832 7.68837L9.44093 7.13161L9.44092 7.13168L15.1832 7.68837ZM22.0223 9.43904L16.28 8.88228V8.88228L22.0223 9.43904ZM27.8281 1.90559L33.5704 2.46235L34.1272 -3.27994L28.3849 -3.83671L27.8281 1.90559ZM14.743 12.2295L9.00069 11.6727L9.00068 11.6728L14.743 12.2295ZM27.3411 1.85837L27.8979 -3.88393H27.8979L27.3411 1.85837ZM27.4907 5.38549L33.233 5.94226V5.94226L27.4907 5.38549ZM14.8926 15.7566L14.3356 21.4989L14.3358 21.4989L14.8926 15.7566ZM28.6968 24.1038L28.14 29.8461L33.8823 30.4029L34.4391 24.6606L28.6968 24.1038ZM22.4265 16.4871L21.8697 22.2294L21.8697 22.2294L22.4265 16.4871ZM20.6758 23.3261L21.2326 17.5838L20.6758 23.3261ZM28.2094 29.1319L27.6526 34.8742L33.3949 35.431L33.9517 29.6887L28.2094 29.1319ZM17.8855 16.0468L17.3287 21.7891L17.3287 21.7891L17.8855 16.0468ZM28.2566 28.6449L33.9989 29.2017V29.2017L28.2566 28.6449ZM24.7295 28.7945L25.2862 23.0522H25.2862L24.7295 28.7945ZM14.3584 16.1964L8.61612 15.6391L8.61607 15.6396L14.3584 16.1964ZM-0.442405 13.0572L7.57857 13.8349L8.69209 2.35028L0.671119 1.57258L-0.442405 13.0572ZM14.9624 9.96704L6.94142 9.18935L5.8279 20.674L13.8489 21.4516L14.9624 9.96704ZM6.94142 9.18935C6.278 9.12502 5.79234 8.53507 5.85666 7.87165L-5.62795 6.75812C-6.30725 13.7643 -1.1783 19.9946 5.8279 20.674L6.94142 9.18935ZM7.57857 13.8349C8.24199 13.8992 8.72766 14.4892 8.66333 15.1526L20.1479 16.2661C20.8272 9.25991 15.6983 3.02958 8.69209 2.35028L7.57857 13.8349ZM0.0451482 8.02909L3.52505 8.36649L4.63857 -3.11811L1.15867 -3.45552L0.0451482 8.02909ZM8.71064 14.6651L8.66338 15.1521L20.1479 16.2666L20.1952 15.7795L8.71064 14.6651ZM14.9624 9.96705L11.4826 9.62962L10.369 21.1142L13.8488 21.4516L14.9624 9.96705ZM6.29699 3.33055L6.34421 2.84355L-5.14039 1.73002L-5.18761 2.21703L6.29699 3.33055ZM11.4825 9.62962C8.31115 9.32212 5.9895 6.50194 6.29699 3.33055L-5.18761 2.21703C-6.11009 11.7312 0.854855 20.1917 10.369 21.1142L11.4825 9.62962ZM3.52505 8.36649C6.69644 8.67398 9.01808 11.4942 8.71059 14.6656L20.1952 15.7791C21.1177 6.26492 14.1527 -2.19564 4.63857 -3.11811L3.52505 8.36649ZM3.63535 14.6651L2.85766 22.686L14.3423 23.7996L15.12 15.7786L3.63535 14.6651ZM6.7255 30.0699L7.50319 22.0489L-3.98141 20.9354L-4.75911 28.9563L6.7255 30.0699ZM7.50319 22.0489C7.56752 21.3855 8.15747 20.8998 8.82089 20.9641L9.93442 9.47953C2.92823 8.80022 -3.3021 13.9292 -3.98141 20.9354L7.50319 22.0489ZM2.85766 22.686C2.79333 23.3495 2.20338 23.8351 1.53996 23.7708L0.426432 35.2554C7.43262 35.9347 13.663 30.8058 14.3423 23.7996L2.85766 22.686ZM8.66333 15.1526L8.32592 18.6325L19.8105 19.746L20.1479 16.2661L8.66333 15.1526ZM2.02695 23.818L1.54005 23.7708L0.426336 35.2554L0.913233 35.3026L2.02695 23.818ZM6.72551 30.0697L7.06281 26.5898L-4.42183 25.4766L-4.75913 28.9565L6.72551 30.0697ZM13.3618 21.4044L13.8488 21.4516L14.9625 9.96705L14.4755 9.91982L13.3618 21.4044ZM7.0628 26.59C7.37029 23.4186 10.1905 21.0969 13.3619 21.4044L14.4754 9.91982C4.96123 8.99734 -3.49934 15.9623 -4.42181 25.4764L7.0628 26.59ZM8.32592 18.6325C8.01843 21.8039 5.19824 24.1255 2.02685 23.818L0.91333 35.3026C10.4275 36.2251 18.8881 29.2602 19.8105 19.746L8.32592 18.6325ZM17.0577 0.861305L16.28 8.88228L27.7646 9.99581L28.5423 1.97483L17.0577 0.861305ZM20.1479 16.266L20.9255 8.24506L9.44092 7.13168L8.66332 15.1527L20.1479 16.266ZM20.9255 8.24513C20.9899 7.58171 21.5798 7.09605 22.2432 7.16037L23.3568 -4.32423C16.3506 -5.00354 10.1202 0.125417 9.44093 7.13161L20.9255 8.24513ZM16.28 8.88228C16.2157 9.5458 15.6257 10.0314 14.9624 9.96704L13.8489 21.4516C20.8552 22.131 27.0853 17.0019 27.7646 9.9958L16.28 8.88228ZM22.0858 1.34883L21.7484 4.82873L33.233 5.94226L33.5704 2.46235L22.0858 1.34883ZM15.4496 10.0143L14.9626 9.96706L13.8487 21.4516L14.3356 21.4989L15.4496 10.0143ZM20.1479 16.266L20.4853 12.7861L9.00068 11.6728L8.66332 15.1527L20.1479 16.266ZM26.7844 7.60068L27.2714 7.6479L28.3849 -3.83671L27.8979 -3.88393L26.7844 7.60068ZM20.4853 12.7862C20.7928 9.61483 23.613 7.29319 26.7844 7.60068L27.8979 -3.88393C18.3837 -4.8064 9.92316 2.15854 9.00069 11.6727L20.4853 12.7862ZM21.7484 4.82873C21.4409 8.00012 18.6207 10.3218 15.4494 10.0143L14.3358 21.4989C23.85 22.4214 32.3106 15.4564 33.233 5.94226L21.7484 4.82873ZM29.2535 18.3615L21.2326 17.5838L20.119 29.0684L28.14 29.8461L29.2535 18.3615ZM13.8489 21.4516L21.8697 22.2294L22.9832 10.7448L14.9624 9.96704L13.8489 21.4516ZM21.8697 22.2294C22.5331 22.2937 23.0188 22.8836 22.9545 23.5471L34.4391 24.6606C35.1184 17.6544 29.9894 11.4241 22.9832 10.7448L21.8697 22.2294ZM21.2326 17.5838C20.5693 17.5195 20.0836 16.9297 20.1479 16.2661L8.66333 15.1526C7.98404 22.1586 13.1127 28.3891 20.119 29.0684L21.2326 17.5838ZM28.7661 23.3896L25.2862 23.0522L24.1727 34.5368L27.6526 34.8742L28.7661 23.3896ZM20.1006 16.7536L20.1479 16.2666L8.66338 15.1521L8.61612 15.6391L20.1006 16.7536ZM13.8488 21.4516L17.3287 21.7891L18.4423 10.3045L14.9624 9.96705L13.8488 21.4516ZM22.5143 28.0881L22.4671 28.5751L33.9517 29.6887L33.9989 29.2017L22.5143 28.0881ZM17.3287 21.7891C20.5001 22.0966 22.8218 24.9167 22.5143 28.0881L33.9989 29.2017C34.9213 19.6875 27.9564 11.2269 18.4423 10.3045L17.3287 21.7891ZM25.2862 23.0522C22.1148 22.7447 19.7932 19.9245 20.1007 16.7531L8.61607 15.6396C7.69359 25.1538 14.6585 33.6143 24.1727 34.5368L25.2862 23.0522Z" fill="#73895D" mask="url(#path-1-inside-1_1_521)"/>
<path opacity="0.9" d="M47.6186 22.975L46.1936 22.95C45.9936 22.95 45.7936 22.95 45.5936 22.95L41.0436 23.175C40.7936 23.175 40.6686 23.0917 40.6686 22.925C40.6686 22.875 40.6936 22.7583 40.7436 22.575C40.9102 22.1917 41.0269 20.975 41.0936 18.925C41.1769 16.875 41.2186 15.0083 41.2186 13.325C41.2186 11.625 41.1852 10.25 41.1186 9.2C41.0186 7.61667 40.8519 6.66667 40.6186 6.35C40.4352 6.11667 40.3436 5.96667 40.3436 5.9C40.3436 5.63333 40.7936 5.4 41.6936 5.2C42.5936 5 43.2352 4.9 43.6186 4.9C44.0186 4.9 44.2686 4.925 44.3686 4.975C44.4686 5.00833 44.5186 5.09167 44.5186 5.225C44.5186 5.35833 44.4852 5.78333 44.4186 6.5C44.2519 8.61667 44.1686 11.0833 44.1686 13.9C44.1686 16.7 44.2352 18.9417 44.3686 20.625C44.3686 20.8083 44.5269 20.9667 44.8436 21.1C45.1602 21.2333 45.5519 21.3 46.0186 21.3C47.6519 21.3 48.4686 20.0417 48.4686 17.525C48.4686 16.825 48.4269 16.3917 48.3436 16.225C48.2769 16.0583 48.2436 15.95 48.2436 15.9C48.2436 15.7333 48.3602 15.65 48.5936 15.65C48.7769 15.65 49.0186 15.7417 49.3186 15.925C49.6352 16.1083 49.8936 16.3417 50.0936 16.625C50.2936 16.8917 50.4769 17.325 50.6436 17.925C50.8102 18.5083 50.8936 19.2 50.8936 20C50.8936 21.9833 50.6519 22.975 50.1686 22.975C49.3186 22.975 48.4686 22.975 47.6186 22.975ZM54.2008 16.65L54.2258 17.275C54.2258 17.375 54.2925 17.425 54.4258 17.425C54.9591 17.375 55.4258 17.2417 55.8258 17.025C56.2258 16.7917 56.5258 16.5333 56.7258 16.25C57.1258 15.6333 57.3425 15.1 57.3758 14.65L57.4008 14.35C57.4008 13.45 57.0425 13 56.3258 13C55.7925 13 55.3591 13.2333 55.0258 13.7C54.4758 14.4333 54.2008 15.4167 54.2008 16.65ZM59.6508 19.975C59.6508 20.6083 59.5175 21.1667 59.2508 21.65C59.0008 22.1167 58.7091 22.4667 58.3758 22.7C58.0591 22.9167 57.6841 23.0917 57.2508 23.225C56.7008 23.3917 56.1758 23.475 55.6758 23.475C54.2758 23.475 53.2425 22.95 52.5758 21.9C51.9091 20.85 51.5758 19.5167 51.5758 17.9C51.5758 16.2667 51.9841 14.8167 52.8008 13.55C53.6341 12.2833 54.8758 11.65 56.5258 11.65C58.0258 11.65 59.0425 12.175 59.5758 13.225C59.7925 13.625 59.9008 14.0083 59.9008 14.375C59.9008 14.725 59.8841 15.0083 59.8508 15.225C59.8175 15.425 59.7008 15.7333 59.5008 16.15C59.3008 16.5667 59.0341 16.9417 58.7008 17.275C58.3675 17.6083 57.8425 17.925 57.1258 18.225C56.4091 18.525 55.5675 18.725 54.6008 18.825C54.4675 18.825 54.4008 18.8833 54.4008 19C54.4008 19.15 54.4508 19.375 54.5508 19.675C54.6675 19.9583 54.7925 20.2 54.9258 20.4C55.2925 20.8667 55.8341 21.1 56.5508 21.1C57.2675 21.1 57.8758 20.8667 58.3758 20.4C58.6425 20.15 58.8591 19.8417 59.0258 19.475C59.0925 19.3417 59.1758 19.275 59.2758 19.275C59.3925 19.275 59.4841 19.3667 59.5508 19.55C59.6175 19.7333 59.6508 19.875 59.6508 19.975ZM69.0381 15.5L68.9881 18.7C68.9881 20.9167 69.2298 22.25 69.7131 22.7C69.7798 22.7667 69.8131 22.8417 69.8131 22.925C69.8131 23.175 69.2714 23.3 68.1881 23.3C67.1214 23.3 66.5548 22.9833 66.4881 22.35C66.4714 22.2 66.4631 21.8917 66.4631 21.425L66.5631 17.425C66.5631 17.3083 66.4964 17.25 66.3631 17.25C65.5631 17.25 64.8131 17.475 64.1131 17.925C63.4131 18.375 63.0631 18.95 63.0631 19.65C63.0631 20.0167 63.1631 20.325 63.3631 20.575C63.5631 20.825 63.8048 20.95 64.0881 20.95C64.3881 20.95 64.6298 20.8917 64.8131 20.775C65.0131 20.6583 65.1298 20.5917 65.1631 20.575C65.4464 20.6083 65.5881 20.9083 65.5881 21.475C65.5881 22.025 65.3298 22.475 64.8131 22.825C64.2964 23.1583 63.7548 23.325 63.1881 23.325C62.6214 23.325 62.1298 23.225 61.7131 23.025C61.3131 22.825 61.0214 22.6 60.8381 22.35C60.6548 22.1 60.5048 21.8167 60.3881 21.5C60.2714 21.1167 60.2131 20.7833 60.2131 20.5C60.2131 19.3333 60.5798 18.4 61.3131 17.7C62.0464 17 62.9881 16.5 64.1381 16.2C65.6548 15.9 66.4464 15.625 66.5131 15.375C66.5631 15.1917 66.5881 14.8833 66.5881 14.45C66.5881 13.5667 66.1381 13.125 65.2381 13.125C64.8548 13.125 64.5131 13.25 64.2131 13.5C63.9131 13.7333 63.7631 14.0333 63.7631 14.4L63.9131 15C63.8798 15.2833 63.5798 15.45 63.0131 15.5L62.7381 15.525C62.2381 15.525 61.8381 15.4 61.5381 15.15C61.2548 14.9 61.1131 14.5667 61.1131 14.15C61.1131 13.8833 61.1964 13.5917 61.3631 13.275C61.5464 12.9417 61.7714 12.675 62.0381 12.475C62.3048 12.275 62.7131 12.1 63.2631 11.95C63.8298 11.7833 64.3714 11.7 64.8881 11.7C65.4048 11.7 65.8048 11.7167 66.0881 11.75C66.3714 11.7833 66.7548 11.8667 67.2381 12C67.7381 12.1167 68.1464 12.35 68.4631 12.7C68.7964 13.05 68.9714 13.425 68.9881 13.825C69.0214 14.2083 69.0381 14.7667 69.0381 15.5ZM73.8014 16.75L73.9264 21.75C73.9264 22.8 73.7847 23.725 73.5014 24.525C73.2347 25.3417 72.9014 25.95 72.5014 26.35C71.6847 27.2 70.9681 27.6833 70.3514 27.8L69.9264 27.9C69.6764 27.9 69.5514 27.825 69.5514 27.675L69.6764 27.3C70.8931 25.6167 71.5014 21.4833 71.5014 14.9C71.5014 14.3 71.4931 13.85 71.4764 13.55C71.1264 13.55 70.7764 13.575 70.4264 13.625H70.4014C70.2181 13.625 70.1264 13.5333 70.1264 13.35L70.2014 12.4C70.2181 12.25 70.3347 12.175 70.5514 12.175H71.4514V10.5L71.5014 8.125C71.5014 8.00833 71.5181 7.88333 71.5514 7.75C71.6014 7.6 71.7847 7.38333 72.1014 7.1C72.4181 6.8 72.8847 6.53333 73.5014 6.3C74.1181 6.05 74.6431 5.925 75.0764 5.925C75.5264 5.925 75.7514 6.05833 75.7514 6.325C75.7514 6.425 75.6764 6.50833 75.5264 6.575C75.0431 6.725 74.6431 7.15833 74.3264 7.875C74.0264 8.575 73.8764 9.775 73.8764 11.475V12.175C74.7264 12.1417 75.2847 12.1 75.5514 12.05C75.6681 12.05 75.7264 12.15 75.7264 12.35C75.7264 12.55 75.6347 12.8 75.4514 13.1C75.2847 13.3833 75.0681 13.5333 74.8014 13.55C74.5514 13.55 74.2347 13.5417 73.8514 13.525C73.8181 14.7917 73.8014 15.8667 73.8014 16.75Z" fill="#020D19"/>
</svg>
